<svg xmlns="http://www.w3.org/2000/svg" xmlns:xlink="http://www.w3.org/1999/xlink" width="600" height="660" version="1">
  <defs>
    <radialGradient id="aT" cx="221.44487" cy="226.33101" r="300" fx="221.44487" fy="226.33101" gradientTransform="matrix(1.35322 0 0 1.34893 -77.6293 -85.7469)" gradientUnits="userSpaceOnUse" xlink:href="#a"/>
    <linearGradient id="a">
      <stop offset="0" stop-color="#fff" stop-opacity=".31373"/>
      <stop offset=".19" stop-color="#fff" stop-opacity=".25098"/>
      <stop offset=".6" stop-color="#6b6b6b" stop-opacity=".12549"/>
      <stop offset="1" stop-opacity=".12549"/>
    </linearGradient>
    <g id="c">
      <path id="b" d="M0 0v1h.5L0 0z" transform="rotate(17.99991 3.15688 -.5)"/>
      <use width="810" height="540" transform="scale(-1 1)" xlink:href="#b"/>
    </g>
    <g id="d">
      <use width="810" height="540" transform="rotate(72)" xlink:href="#c"/>
      <use width="810" height="540" transform="rotate(144)" xlink:href="#c"/>
    </g>
    <g id="f">
      <path id="e" d="M0 0v1h.5L0 0z" transform="rotate(17.99991 3.15688 -.5)"/>
      <use width="810" height="540" transform="scale(-1 1)" xlink:href="#e"/>
    </g>
    <g id="g">
      <use width="810" height="540" transform="rotate(72)" xlink:href="#f"/>
      <use width="810" height="540" transform="rotate(144)" xlink:href="#f"/>
    </g>
    <g id="i">
      <path id="h" d="M0 0v1h.5L0 0z" transform="rotate(17.99991 3.15688 -.5)"/>
      <use width="810" height="540" transform="scale(-1 1)" xlink:href="#h"/>
    </g>
    <g id="j">
      <use width="810" height="540" transform="rotate(72)" xlink:href="#i"/>
      <use width="810" height="540" transform="rotate(144)" xlink:href="#i"/>
    </g>
    <g id="l">
      <path id="k" d="M0 0v1h.5L0 0z" transform="rotate(17.99991 3.15688 -.5)"/>
      <use width="810" height="540" transform="scale(-1 1)" xlink:href="#k"/>
    </g>
    <g id="m">
      <use width="810" height="540" transform="rotate(72)" xlink:href="#l"/>
      <use width="810" height="540" transform="rotate(144)" xlink:href="#l"/>
    </g>
    <g id="o">
      <path id="n" d="M0 0v1h.5z" transform="rotate(18 3.15688 -.5)"/>
      <use width="810" height="540" transform="scale(-1 1)" xlink:href="#n"/>
    </g>
    <g id="p">
      <use width="810" height="540" transform="rotate(72)" xlink:href="#o"/>
      <use width="810" height="540" transform="rotate(144)" xlink:href="#o"/>
    </g>
    <g id="r">
      <path id="q" d="M0 0v1h.5L0 0z" transform="rotate(18 3.15688 -.5)"/>
      <use width="810" height="540" transform="scale(-1 1)" xlink:href="#q"/>
    </g>
    <g id="s">
      <use width="810" height="540" transform="rotate(72)" xlink:href="#r"/>
      <use width="810" height="540" transform="rotate(144)" xlink:href="#r"/>
    </g>
    <path id="t" d="M2.9221 27.6725c0-5.9516 2.3166-9.8432 5.5786-11.0121 1.4485-.519 3.3069-.2735 5.0186 1.4466 2.1186 2.129 2.7358 7.9934-3.4838 9.1213.6583-.9559.6191-3.0816-.714-3.7874-.9904-.5244-2.1125-.2532-2.6753.1234-.8237.5513-1.7291 2.1059-1.679 4.1082H2.9221z"/>
    <g id="v">
      <path id="u" d="M0 0v1h.5L0 0z" transform="rotate(18 3.15688 -.5)"/>
      <use width="810" height="540" transform="scale(-1 1)" xlink:href="#u"/>
    </g>
    <g id="w">
      <use width="810" height="540" transform="rotate(72)" xlink:href="#v"/>
      <use width="810" height="540" transform="rotate(144)" xlink:href="#v"/>
    </g>
    <g id="y">
      <path id="x" d="M0 0v1h.5L0 0z" transform="rotate(18 3.15688 -.5)"/>
      <use width="810" height="540" transform="scale(-1 1)" xlink:href="#x"/>
    </g>
    <g id="z">
      <use width="810" height="540" transform="rotate(72)" xlink:href="#y"/>
      <use width="810" height="540" transform="rotate(144)" xlink:href="#y"/>
    </g>
    <g id="B">
      <path id="A" d="M0 0v1h.5L0 0z" transform="rotate(18 3.15688 -.5)"/>
      <use width="810" height="540" transform="scale(-1 1)" xlink:href="#A"/>
    </g>
    <g id="C">
      <use width="810" height="540" transform="rotate(72)" xlink:href="#B"/>
      <use width="810" height="540" transform="rotate(144)" xlink:href="#B"/>
    </g>
    <path id="D" d="M2.9221 27.6725c0-5.9516 2.3166-9.8432 5.5786-11.0121 1.4485-.519 3.3069-.2735 5.0186 1.4466 2.1186 2.129 2.7358 7.9934-3.4838 9.1213.6583-.9559.6191-3.0816-.714-3.7874-.9904-.5244-2.1125-.2532-2.6753.1234-.8237.5513-1.7291 2.1059-1.679 4.1082H2.9221z"/>
    <g id="F">
      <path id="E" d="M0 0v1h.5L0 0z" transform="rotate(18 3.15688 -.5)"/>
      <use width="810" height="540" transform="scale(-1 1)" xlink:href="#E"/>
    </g>
    <g id="G">
      <use width="810" height="540" transform="rotate(72)" xlink:href="#F"/>
      <use width="810" height="540" transform="rotate(144)" xlink:href="#F"/>
    </g>
    <g id="I">
      <path id="H" d="M0 0v1h.5L0 0z" transform="rotate(18 3.15688 -.5)"/>
      <use width="810" height="540" transform="scale(-1 1)" xlink:href="#H"/>
    </g>
    <g id="J">
      <use width="810" height="540" transform="rotate(72)" xlink:href="#I"/>
      <use width="810" height="540" transform="rotate(144)" xlink:href="#I"/>
    </g>
    <g id="L">
      <path id="K" d="M0 0v1h.5L0 0z" transform="rotate(18 3.15688 -.5)"/>
      <use width="810" height="540" transform="scale(-1 1)" xlink:href="#K"/>
    </g>
    <g id="M">
      <use width="810" height="540" transform="rotate(72)" xlink:href="#L"/>
      <use width="810" height="540" transform="rotate(144)" xlink:href="#L"/>
    </g>
    <path id="N" d="M2.9221 27.6725c0-5.9516 2.3166-9.8432 5.5786-11.0121 1.4485-.519 3.3069-.2735 5.0186 1.4466 2.1186 2.129 2.7358 7.9934-3.4838 9.1213.6583-.9559.6191-3.0816-.714-3.7874-.9904-.5244-2.1125-.2532-2.6753.1234-.8237.5513-1.7291 2.1059-1.679 4.1082H2.9221z"/>
    <g id="P">
      <path id="O" d="M0 0v1h.5L0 0z" transform="rotate(18 3.15688 -.5)"/>
      <use width="810" height="540" transform="scale(-1 1)" xlink:href="#O"/>
    </g>
    <g id="Q">
      <use width="810" height="540" transform="rotate(72)" xlink:href="#P"/>
      <use width="810" height="540" transform="rotate(144)" xlink:href="#P"/>
    </g>
    <g id="S">
      <path id="R" d="M0 0v1h.5L0 0z" transform="rotate(18 3.15688 -.5)"/>
      <use width="810" height="540" transform="scale(-1 1)" xlink:href="#R"/>
    </g>
    <g id="T">
      <use width="810" height="540" transform="rotate(72)" xlink:href="#S"/>
      <use width="810" height="540" transform="rotate(144)" xlink:href="#S"/>
    </g>
    <path id="U" d="M2.9221 27.6725c0-5.9516 2.3166-9.8432 5.5786-11.0121 1.4485-.519 3.3069-.2735 5.0186 1.4466 2.1186 2.129 2.7358 7.9934-3.4838 9.1213.6583-.9559.6191-3.0816-.714-3.7874-.9904-.5244-2.1125-.2532-2.6753.1234-.8237.5513-1.7291 2.1059-1.679 4.1082H2.9221z"/>
    <g id="W">
      <path id="V" d="M0 0v1h.5L0 0z" transform="rotate(18 3.15688 -.5)"/>
      <use width="810" height="540" transform="scale(-1 1)" xlink:href="#V"/>
    </g>
    <g id="X">
      <use width="810" height="540" transform="rotate(72)" xlink:href="#W"/>
      <use width="810" height="540" transform="rotate(144)" xlink:href="#W"/>
    </g>
    <g id="Z">
      <path id="Y" d="M0 0v1h.5L0 0z" transform="rotate(18 3.15688 -.5)"/>
      <use width="810" height="540" transform="scale(-1 1)" xlink:href="#Y"/>
    </g>
    <g id="aa">
      <use width="810" height="540" transform="rotate(72)" xlink:href="#Z"/>
      <use width="810" height="540" transform="rotate(144)" xlink:href="#Z"/>
    </g>
    <g id="ac">
      <path id="ab" d="M0 0v1h.5L0 0z" transform="rotate(18 3.15688 -.5)"/>
      <use width="810" height="540" transform="scale(-1 1)" xlink:href="#ab"/>
    </g>
    <g id="ad">
      <use width="810" height="540" transform="rotate(72)" xlink:href="#ac"/>
      <use width="810" height="540" transform="rotate(144)" xlink:href="#ac"/>
    </g>
    <path id="ae" d="M2.9221 27.6725c0-5.9516 2.3166-9.8432 5.5786-11.0121 1.4485-.519 3.3069-.2735 5.0186 1.4466 2.1186 2.129 2.7358 7.9934-3.4838 9.1213.6583-.9559.6191-3.0816-.714-3.7874-.9904-.5244-2.1125-.2532-2.6753.1234-.8237.5513-1.7291 2.1059-1.679 4.1082H2.9221z"/>
    <g id="ag">
      <path id="af" d="M0 0v1h.5L0 0z" transform="rotate(18 3.15688 -.5)"/>
      <use width="810" height="540" transform="scale(-1 1)" xlink:href="#af"/>
    </g>
    <g id="ah">
      <use width="810" height="540" transform="rotate(72)" xlink:href="#ag"/>
      <use width="810" height="540" transform="rotate(144)" xlink:href="#ag"/>
    </g>
    <g id="aj">
      <path id="ai" d="M0 0v1h.5L0 0z" transform="rotate(18 3.15688 -.5)"/>
      <use width="810" height="540" transform="scale(-1 1)" xlink:href="#ai"/>
    </g>
    <g id="ak">
      <use width="810" height="540" transform="rotate(72)" xlink:href="#aj"/>
      <use width="810" height="540" transform="rotate(144)" xlink:href="#aj"/>
    </g>
    <path id="al" d="M2.9221 27.6725c0-5.9516 2.3166-9.8432 5.5786-11.0121 1.4485-.519 3.3069-.2735 5.0186 1.4466 2.1186 2.129 2.7358 7.9934-3.4838 9.1213.6583-.9559.6191-3.0816-.714-3.7874-.9904-.5244-2.1125-.2532-2.6753.1234-.8237.5513-1.7291 2.1059-1.679 4.1082H2.9221z"/>
    <g id="an">
      <path id="am" d="M0 0v1h.5L0 0z" transform="rotate(18 3.15688 -.5)"/>
      <use width="810" height="540" transform="scale(-1 1)" xlink:href="#am"/>
    </g>
    <g id="ao">
      <use width="810" height="540" transform="rotate(72)" xlink:href="#an"/>
      <use width="810" height="540" transform="rotate(144)" xlink:href="#an"/>
    </g>
    <g id="aq">
      <path id="ap" d="M0 0v1h.5L0 0z" transform="rotate(18 3.15688 -.5)"/>
      <use width="810" height="540" transform="scale(-1 1)" xlink:href="#ap"/>
    </g>
    <g id="ar">
      <use width="810" height="540" transform="rotate(72)" xlink:href="#aq"/>
      <use width="810" height="540" transform="rotate(144)" xlink:href="#aq"/>
    </g>
    <path id="as" fill="#fcef3c" stroke="#000" stroke-width="3.80702" d="M-267.3739-6.853l-4.84868 23.83019-4.8487-23.83018v-44.74082h-25.21317v14.54607h-9.69738v-14.54607h-14.54607v-9.69738h14.54607v-14.54608h9.69738v14.54608h25.21317v-25.2132h-14.54606v-9.69738h14.54606v-14.54607h9.69738v14.54607h14.54608v9.69738h-14.54608v25.2132h25.2132v-14.54608h9.69738v14.54608h14.54607v9.69738h-14.54607v14.54607h-9.69738v-14.54607h-25.2132V-6.853z"/>
    <g id="au">
      <path id="at" d="M0 0v1h.5L0 0z" transform="rotate(18 3.15688 -.5)"/>
      <use width="810" height="540" transform="scale(-1 1)" xlink:href="#at"/>
    </g>
    <g id="av">
      <use width="810" height="540" transform="rotate(72)" xlink:href="#au"/>
      <use width="810" height="540" transform="rotate(144)" xlink:href="#au"/>
    </g>
    <path id="aw" d="M2.9221 27.6725c0-5.9516 2.3166-9.8432 5.5786-11.0121 1.4485-.519 3.3069-.2735 5.0186 1.4466 2.1186 2.129 2.7358 7.9934-3.4838 9.1213.6583-.9559.6191-3.0816-.714-3.7874-.9904-.5244-2.1125-.2532-2.6753.1234-.8237.5513-1.7291 2.1059-1.679 4.1082H2.9221z"/>
    <g id="ay">
      <path id="ax" d="M0 0v1h.5L0 0z" transform="rotate(18 3.15688 -.5)"/>
      <use width="810" height="540" transform="scale(-1 1)" xlink:href="#ax"/>
    </g>
    <g id="az">
      <use width="810" height="540" transform="rotate(72)" xlink:href="#ay"/>
      <use width="810" height="540" transform="rotate(144)" xlink:href="#ay"/>
    </g>
    <g id="aB">
      <path id="aA" d="M0 0v1h.5L0 0z" transform="rotate(18 3.15688 -.5)"/>
      <use width="810" height="540" transform="scale(-1 1)" xlink:href="#aA"/>
    </g>
    <g id="aC">
      <use width="810" height="540" transform="rotate(72)" xlink:href="#aB"/>
      <use width="810" height="540" transform="rotate(144)" xlink:href="#aB"/>
    </g>
    <path id="aD" d="M2.9221 27.6725c0-5.9516 2.3166-9.8432 5.5786-11.0121 1.4485-.519 3.3069-.2735 5.0186 1.4466 2.1186 2.129 2.7358 7.9934-3.4838 9.1213.6583-.9559.6191-3.0816-.714-3.7874-.9904-.5244-2.1125-.2532-2.6753.1234-.8237.5513-1.7291 2.1059-1.679 4.1082H2.9221z"/>
    <path id="aE" d="M2.9221 27.6725c0-5.9516 2.3166-9.8432 5.5786-11.0121 1.4485-.519 3.3069-.2735 5.0186 1.4466 2.1186 2.129 2.7358 7.9934-3.4838 9.1213.6583-.9559.6191-3.0816-.714-3.7874-.9904-.5244-2.1125-.2532-2.6753.1234-.8237.5513-1.7291 2.1059-1.679 4.1082H2.9221z"/>
    <path id="aF" d="M2.9221 27.6725c0-5.9516 2.3166-9.8432 5.5786-11.0121 1.4485-.519 3.3069-.2735 5.0186 1.4466 2.1186 2.129 2.7358 7.9934-3.4838 9.1213.6583-.9559.6191-3.0816-.714-3.7874-.9904-.5244-2.1125-.2532-2.6753.1234-.8237.5513-1.7291 2.1059-1.679 4.1082H2.9221z"/>
    <g id="aH">
      <path id="aG" d="M0 0v1h.5L0 0z" transform="rotate(18 3.15688 -.5)"/>
      <use width="810" height="540" transform="scale(-1 1)" xlink:href="#aG"/>
    </g>
    <g id="aI">
      <use width="810" height="540" transform="rotate(72)" xlink:href="#aH"/>
      <use width="810" height="540" transform="rotate(144)" xlink:href="#aH"/>
    </g>
    <g id="aK">
      <path id="aJ" d="M0 0v1h.5L0 0z" transform="rotate(18 3.15688 -.5)"/>
      <use width="810" height="540" transform="scale(-1 1)" xlink:href="#aJ"/>
    </g>
    <g id="aL">
      <use width="810" height="540" transform="rotate(72)" xlink:href="#aK"/>
      <use width="810" height="540" transform="rotate(144)" xlink:href="#aK"/>
    </g>
    <path id="aM" d="M2.9221 27.6725c0-5.9516 2.3166-9.8432 5.5786-11.0121 1.4485-.519 3.3069-.2735 5.0186 1.4466 2.1186 2.129 2.7358 7.9934-3.4838 9.1213.6583-.9559.6191-3.0816-.714-3.7874-.9904-.5244-2.1125-.2532-2.6753.1234-.8237.5513-1.7291 2.1059-1.679 4.1082H2.9221z"/>
    <g id="aO">
      <path id="aN" d="M0 0v1h.5L0 0z" transform="rotate(18 3.15688 -.5)"/>
      <use width="810" height="540" transform="scale(-1 1)" xlink:href="#aN"/>
    </g>
    <g id="aP">
      <use width="810" height="540" transform="rotate(72)" xlink:href="#aO"/>
      <use width="810" height="540" transform="rotate(144)" xlink:href="#aO"/>
    </g>
    <g id="aR">
      <path id="aQ" d="M0 0v1h.5L0 0z" transform="rotate(18 3.15688 -.5)"/>
      <use width="810" height="540" transform="scale(-1 1)" xlink:href="#aQ"/>
    </g>
    <g id="aS">
      <use width="810" height="540" transform="rotate(72)" xlink:href="#aR"/>
      <use width="810" height="540" transform="rotate(144)" xlink:href="#aR"/>
    </g>
  </defs>
  <path d="M1.5 1.5h597v258.5425c0 286.74713-298.5 398.45749-298.5 398.45749S1.5 546.78963 1.5 260.0425z" style="marker:none" fill="#3060f0" fill-rule="evenodd" overflow="visible"/>
  <path style="marker:none" fill="#fff03c" fill-rule="evenodd" stroke="#000" stroke-linecap="round" stroke-width="1.5" d="M1.5 145H15v75H1.5zM105 145h30v75h-30zM225 145h30v75h-30zM345 145h30v75h-30zM465 145h30v75h-30zM585 145h13.5v75H585zM45 245h30v75H45zM165 245h30v75h-30zM285 245h30v75h-30zM405 245h30v75h-30zM525 245h30v75h-30zM15 345v16.915c-1.527-5.551-2.939-11.189-4.227-16.915zM105 345h30v75h-30zM225 345h30v75h-30zM345 345h30v75h-30zM465 345h30v75h-30zM585 361.915V345h4.227c-1.288 5.726-2.7 11.364-4.227 16.915zM75 445v40.435C65.786 472.732 57.095 459.262 49.138 445zM165 445h30v75h-30zM285 445h30v75h-30zM405 445h30v75h-30zM525 485.435V445h25.862c-7.957 14.262-16.647 27.732-25.862 40.435zM135 545v7.693c-2.713-2.516-5.419-5.08-8.114-7.693zM225 545h30v75h-30zM345 545h30v75h-30zM465 552.693V545h8.114c-2.695 2.613-5.401 5.177-8.114 7.693zM315 652.063c-9.503 4.272-15 6.329-15 6.329s-5.497-2.057-15-6.329V645h30z" overflow="visible"/>
  <g fill="#e00808" fill-rule="evenodd" stroke="#000" stroke-width="3">
    <path stroke-width="2.24172" d="M154.80311 254.35917c-.62605-4.84615.24854-8.98349-8.79405-7.28917 1.41472-4.1091 5.29264-5.4164 9.18324-4.78346 4.34228.70641 8.29689 3.8886 9.77614 8.44534zM174.55014 240.85073c.9591-3.3578 3.36595-9.3602-6.8651-7.82056 2.55112-5.15127 8.6743-6.44527 13.49303-3.5548 4.92238 2.95263 3.8271 8.95863 2.43189 13.73598zM192.87241 248.50544c3.14663-4.29414 2.69627-9.3162-1.03725-11.22246 3.9426-2.21631 9.1581-1.14452 10.82864 2.8843 1.43306 3.45609.43278 9.07417-1.14521 12.42278z"/>
  </g>
  <path fill="#e00808" fill-rule="evenodd" stroke="#000" stroke-width="2.24172" d="M177.10595 303.05214c-2.20663 2.42821-14.53654 7.20902-18.28541-3.6569 7.89203 2.16382 9.24546-2.0474 11.03443-4.72682zM186.52773 523.59243c-4.76938-3.6453-11.50064-5.87022-14.62187-2.51439-.18186-4.59303 5.68901-8.2365 11.7779-8.40392 4.26964-.1174 8.54566 1.3349 10.82017 3.61883-1.68231 1.68515-5.14812 3.8957-7.9762 7.29948zM177.3063 540.62748c-4.87448-1.14614-10.51713-1.29433-10.35906 4.72818-6.18562-.70205-6.16546-8.76733.48505-12.17408 5.13982-2.6329 10.26502-2.2529 12.19466-1.57085zM189.61484 558.8777c-5.487.65303-12.72486-.15827-12.00415 7.57607-4.3668.32461-6.10422-6.82035-2.51205-11.87508 2.54497-3.58115 6.23487-5.10514 10.02259-5.49643zM222.25923 555.12129c4.04508 2.9355 7.29965 7.25895 5.30366 11.27031 3.72524-.39902 6.65066-2.72565 6.94516-6.29106.347-4.20114-1.55608-8.25683-3.09046-10.24935zM346.7766 572.32961c-7.56424-1.091-8.62237 2.72914-8.82659 6.15197-7.22238-2.423-5.31752-10.87258-.49165-13.67086 3.86647-2.24197 8.02767-2.01796 12.41564-1.19356zM356.28012 587.63855c-9.07967 3.1482-10.27782 5.0048-11.0488 11.67814-3.1418-2.11954-5.19013-8.59176-1.6451-13.92756 2.23358-3.36187 7.26126-5.4811 10.91496-5.97788zM375.48031 591.24148c.20147 1.79458-.26605 3.43186-1.94597 4.81164-3.23259 2.65507-5.80764 4.73144-1.26194 7.10125-4.0645 1.3783-10.61818 1.47646-10.6839-6.44674-.0349-4.20639 2.39435-7.0584 5.26428-9.28426zM395.27508 570.90088c5.67081.11244 7.88766 4.09426 5.70097 8.07275 3.96392.37936 7.571-2.663 7.86715-6.62886.38324-5.13213-2.88383-8.29723-6.69483-10.37207z"/>
  <path fill="#fff03c" fill-rule="evenodd" stroke="#000" stroke-width="2.24172" d="M186.155 317.92528c-.2226 4.50629 1.8372 9.9382-1.80654 13.97786-1.66348 1.84421-4.3428 2.92629-7.62398 2.82848-3.10515-.09256-7.5463-2.01162-10.18786-1.8855-3.68689.176-5.44987 3.16054-5.386 6.09558 1.55851-1.14842 3.15125-2.0017 5.38466-1.97357 2.9318.03527 6.28282 2.875 11.84671 2.49177 5.3242-.36673 9.91266-3.66372 12.2465-8.48618 2.37844-4.91465.78183-8.6425 3.38537-13.12732.40234 3.31208 1.11727 6.35903 2.80907 9.7566 2.1896 4.3973 6.42897 7.26873 7.85685 17.07999.58048 3.98862-.18381 9.26129-3.1638 12.26449 4.29649 1.85262 9.25679-.70287 11.03256-4.17546 2.86371 6.09518 6.67399 11.67991 11.95253 14.87231 6.79825 4.11152 13.59701 6.35107 21.46248 6.94946l14.62409-12.53072 8.28732-27.3913c-4.2614-1.46426-9.18312-3.44256-12.84587-4.82812-4.16557-1.57577-8.70476-2.49504-12.31663-5.76032-4.36146-3.94293-8.40041-9.27786-12.42995-13.86686-7.9891-9.09831-10.73735-8.84078-13.4339-12.02469-2.78597-3.2895-3.98781-7.81875-11.84938-16.0041-2.16438-2.2535-5.17405-3.15662-7.17533-5.34268-1.95095-2.13107-2.70188-5.2021-2.48798-7.83449.6028-7.41871 4.92335-8.80443 6.1856-12.6847 1.86815-5.7428-3.49736-10.01396-9.03688-8.68334-4.07954.97993-1.46078 6.0355-1.8313 7.95385-.54503 2.82193-2.92357 5.2724-2.995 7.4779-2.42556-1.01449-2.90578-4.85727-2.6909-8.54482.2705-4.64192 1.30525-10.83396-3.17815-13.71837-3.47632-2.2365-9.19828-2.15109-10.67193 2.2254-1.71254 5.08598 4.2657 5.846 4.66053 6.96568.46969 1.33197.70005 9.48199.73823 10.83-1.5573-.7024-2.88995-1.73865-4.70922-2.91133-4.9078-3.16347-4.79983-7.89747-9.5657-8.38191-4.39074-.4463-10.01083 2.64937-8.43943 7.27412 1.88956 5.56117 8.35209 4.46848 9.76407 4.98773 1.60414.58991 13.10745 6.62857 12.71998 24.8766-.05239 2.46716-6.97215 2.29686-7.69655 7.60257-.72017 5.27472 2.47797 9.44568 7.4874 9.16137 3.74804-.21273 6.07058-2.76472 7.03195-5.2816 1.06384 6.26971 4.22668 10.6095 4.3952 12.85374.12242 1.63033-2.21783 4.26029-2.34882 6.91188zM267.46184 434.26961c-4.5505 2.91641-13.28658 5.40901-20.1771 9.34811-12.74839 7.28785-18.89565 12.68378-19.42694 18.32499-.05418.57503-1.71161 6.28797-9.12113 11.5656-4.4316 3.15655-10.22119 5.58494-16.57325 5.19894-4.2243-.2567-10.11428-1.65917-11.98986-6.72458-3.09703-8.36425 5.44079-11.27751 4.26545-19.72065-.53168-3.81927-4.07244-5.19996-5.20864-4.80027 1.62336 1.70147 2.46644 4.05013 2.02104 6.40333-.76074 4.01924-4.07358 6.45915-5.84745 11.0057-1.71067 4.38458-1.70574 11.23268 4.17788 15.57018 5.50338 4.05718 15.06921 5.66126 24.16187 2.97424 9.06452-2.6787 12.34794-6.54396 15.37017-10.0457-.71138 4.05087.42187 5.62004-.43938 8.66826-1.62704 5.7586-6.30113 8.74028-11.6588 10.85833 6.52419 4.02633 13.25613.68375 15.85122-3.7164 2.44302-4.14233 3.81243 7.93416 1.73908 15.5126-1.38906 5.07732-4.12602 9.3973-7.98412 12.35078-8.64179 6.61554-15.98156 7.10391-24.14614 4.94563-4.70687-1.24426-2.99044-6.09843-9.77976-6.91349-3.0342-.36424-6.95823 3.94-7.0061 7.19244-.07427 5.18861 13.50461 6.2296 14.7353 7.5453-3.10946 2.1114-7.88506 3.09667-12.12252 2.89372-1.56053-.07475-5.67219-3.49963-9.15737-1.73857-2.10753 1.06494-6.07352 5.45618-2.69503 9.68197 3.53863 4.4261 8.80875.3845 11.47777-.48914 2.17292-.71125 12.1098-.20798 16.38762-1.04862-1.59888 2.66323-5.57072 5.05392-9.66803 6.17745-4.87563 1.33695-7.98003-.00374-10.09585 3.17837-3.01949 4.54135.83344 11.44663 5.24872 11.1181 8.26178-.60695 7.24648-9.44262 16.1044-10.88453 3.7215-.6058 8.01308-.57147 10.64517.0349 3.70317.8531-1.03922 4.27578 3.03081 6.57805 4.83022 2.73227 12.43849-2.39212 12.53005-4.56773.1643-3.90375-2.64165-4.17257-4.40977-5.8185 5.58156.43625 10.15174.23298 14.03853-2.06288.03893 2.74797-1.39045 4.6956-.94916 7.57099.42114 2.7441 2.4186 3.81436 4.54587 3.56115-.50506-6.41578 4.1646-7.77878 7.11784-11.69084 1.46976-1.94693 2.43352-3.79292 3.40647-5.70893.4815 4.91187.95467 11.85478 10.5716 9.5991-4.28638-2.58109-4.74351-8.08768-3.6805-13.50932.37544-1.91477 1.37652-3.58875 2.97653-4.81198 2.69104-2.05732 7.71467 2.4804 14.51344-1.79893-2.89-.84873-3.70907-2.50809-3.46607-4.22905.31605-2.23836 1.51034-4.20652 1.57341-5.93576.12527-3.43364-2.0297-6.18098-3.71607-8.57177-2.8308-4.01325-2.60238-11.2392-2.33473-16.98758.37449-8.04283 2.51968-13.9343 13.90293-21.85714 10.61578-7.38866 30.7773-3.6992 30.88457-5.28767 2.51893-37.2257-8.871-41.9862-18.5959-47.67863-4.67375-2.73577-6.40155-3.53479-17.01074 5.42102-4.33664 3.6608-7.64031 9.23239-14.01733 13.31942z"/>
  <path fill="#fff03c" fill-rule="evenodd" stroke="#000" stroke-width="2.24172" d="M296.09004 416.56964c7.12392 6.7408 11.84403 19.51694 11.26576 27.51096-7.07741 11.97475-5.1764 18.84423 1.66332 19.2048 5.58116.29823 6.75841-5.9332 6.70055-13.54632-.05164-6.79225-.88905-12.45475-3.61745-18.34278-3.7229-8.03424-9.87664-11.8001-16.01218-14.82666z"/>
  <g>
    <path fill="#fff03c" fill-rule="evenodd" stroke="#000" stroke-width="2.24172" d="M389.8263 460.29032c5.08688-.34212 10.44877-6.11238 19.43588 3.45934 1.72707-3.71089 1.42644-8.43331-2.67973-11.16963 5.8416-4.0001 11.15057-11.61386 11.64128-19.37425.59273-9.3753 4.22591-21.16123 11.85715-24.16028 4.0487-1.59116 7.94742 1.24798 7.72127 6.27693-.4909 10.91606-10.6564 13.897-11.29114 26.1059-.35 6.73112 4.03716 13.5725 11.6696 9.55614-4.38836-1.89249-7.29821-4.72819-7.07817-8.24647.66128-10.57145 13.81704-19.21527 14.672-29.20436 1.00565-11.74975-5.71623-15.2882-10.48073-15.62231-6.37959-.44736-14.03456 3.75081-18.52235 11.81472-2.76592-11.51102 5.05317-22.9697 13.70203-28.57268 7.24687-4.69474 15.50686-8.85183 19.44013-15.45251 4.43463-7.44213 3.27492-16.63822-1.57625-21.06181-.13229 4.3884-3.01889 11.82575-12.096 16.7678-11.01885 5.99929-21.72765 9.5515-30.3331 26.07872-2.621-29.11889 28.38831-41.26873 41.16394-50.62321 15.85639-11.6103 9.97493-35.89907 4.99356-39.11052.38582 4.08239.71538 10.48065-3.97062 18.17478-5.42027 8.89983-15.18149 13.11686-26.91595 19.95737-11.66998 6.80296-21.23318 17.44394-25.61903 28.4689-1.46863-7.33021 3.71961-18.13103 10.40373-25.77106 6.9232-7.91327 15.25541-14.90712 19.98798-19.12451 9.42628-8.4002 23.17338-20.04523 24.00992-44.8477.59187-17.4435-8.38523-29.4237-20.67008-34.21064-7.20472-2.80734-17.66844-2.99326-24.82593-1.20026-3.59104.89957-7.15999 2.23456-10.48956 4.34956-2.34433 1.48916-6.4729.71194-6.16369-3.45.36435-4.90446 7.34463-5.43991 7.94561-11.19184.49576-4.745-3.19657-8.45753-7.05027-10.24344 1.02522 2.87326 1.99926 6.26048.08578 9.66337-2.49396 4.43524-8.40116 4.11713-8.96195 12.40519-.27695 4.14528 2.59957 8.73874 6.54453 9.7983.47132.27213-.65748.8779-.97703 1.34-4.17367 6.03571-4.75898 13.89735-4.18512 19.32491.95841 9.0637 4.1812 12.18634 4.43219 20.59596.07828 2.62121.26374 10.1807-2.76713 15.2426-3.73612 6.23981-7.00492 8.75707-10.66344 10.78479 5.23814.19729 10.79868-1.15507 14.67397-2.77042 7.1631-2.98583 13.07809-12.07035 14.15062-18.022.71415-3.9629.43875-7.64395-.16933-11.22153 3.57073 1.10852 9.74092 1.1252 13.9829-1.83837 4.35586-3.04312 6.64993-9.44006 3.25423-14.8841-.98493 5.6279-4.6785 7.75275-10.29387 8.11611-5.34366.3458-9.70258-2.8867-10.31478-8.68102-.90238-8.5402 6.2211-14.9567 16.22442-15.32558 13.25154-.48867 20.69658 9.0598 20.31166 21.80703-.38581 12.77718-6.47345 22.32705-15.22287 30.14503-7.51694 6.7167-15.4403 13.25688-23.23443 21.3856-6.0789 6.33985-18.03076 19.7566-18.00765 37.14938.01689 12.88862 4.0262 23.21096 10.12612 32.44889 6.09985 9.23798 9.7697 16.96958 12.45381 24.18406 3.22619 8.6718 2.11564 20.64355-6.27682 24.2029-8.69294 3.68682-20.743-1.2688-25.25995-12.61105-3.16031-7.93568-7.93247-16.2883-12.29115-24.2046-4.65434-8.45326-13.26397-16.17535-16.41657-27.32947-2.79466-9.88773-2.4591-21.40313-1.91361-27.23354 1.4947-15.976-3.8266-30.84407-19.03893-35.59476-15.21233-4.75069-27.86234-.49697-36.07976 7.05216 28.14898 36.12676-68.5797 17.55837-6.19033 78.45703 3.7896 3.66498 7.83947 6.60637 12.34675 9.15417 5.16684 2.9206 11.46324 6.6398 14.99641 9.23554 3.99244 2.93314 7.02404 6.58238 9.05494 12.20746 1.93555 5.361 2.82113 11.89318 2.51565 17.67644-.22882 4.33187-.54344 7.98438-.0721 11.9539.51511 4.33847 3.78184 6.12049 3.61493 10.15315-.0692 1.67146-4.2743 3.67494-4.41065 8.41505-.18518 6.4373 2.984 9.09961 2.84275 13.13125-.11377 3.24766-2.38026 5.7206-4.93119 6.88603 2.5852 3.90622 9.18413.77558 10.90856-3.96243 2.54205 3.20907 4.36768 8.27213 4.1078 14.0362-.68583 7.75996-6.11783 12.25235-15.43073 16.65598-6.34559 3.00055-18.1404 10.44756-18.56296 19.46922-.18087 3.92533.69455 6.9424 2.89482 9.3442-.60702-3.67014-.1076-7.47672 2.35039-11.29266 5.76358-8.94777 17.16827-11.72686 25.71074-17.14144 7.97705-5.05619 11.21492-11.52092 11.51585-18.65978.23979-5.60474-2.00037-14.00045-2.01226-15.98035 2.44242 3.29538 4.49797 5.69322 7.40406 7.82277 3.56012 2.60882 7.93898 4.32478 11.53766 6.24796 4.2954 2.29552 7.96734 5.59035 11.33042 8.54544 2.73732 2.40525 6.1283 5.55627 8.1104 8.82657.47548.78451 1.50343 4.3406 1.45869 7.95515-.02683 2.10564-.1097 6.95534-.52244 10.46843-.52498 4.46847-2.10382 9.42433-5.102 13.51762-1.82082 2.48589-4.44044 4.41576-7.6019 5.59892-4.08722 1.5296-6.75787-.46978-9.7381-.291-4.82421.28937-6.98942 6.43947-4.30543 9.97024 2.28397 3.00455 5.87737.16644 8.44197-1.2496 2.35899-1.3025 6.91066-1.40947 11.38191-3.06634-6.00663 9.32104-8.7625 6.2613-11.48953 8.74149-3.27545 2.97894-1.5007 11.89415 3.06584 10.85783 4.87591-1.1065 3.7977-4.83485 4.47984-5.39614 1.49322-1.22866 6.52626-3.78593 10.9537-9.21336 0 0 .02653 3.92971-.90355 6.02775-1.13815 2.56741-5.87744 3.29754-6.23364 7.14395-.49266 5.31996 5.29143 6.68719 9.37883 4.82297 6.82556-3.11305 1.2872-9.64992 3.46555-12.41341 2.2936-2.9097 3.99918.12159 11.13216-9.82067.7796 1.49387 2.64011 2.32002 4.62393 2.075 5.16248-.63763 10.55134-7.08333 6.88793-10.94298-2.02107-2.12935-8.61158.1126-6.9449-1.66936 2.93886-3.14215 5.29506-10.13896 6.05284-12.31588 1.40477 2.79564 3.12554 6.13801 8.11013 5.45717-3.68921-8.03492 2.03104-7.67043 2.27422-13.48235.06935-1.65773-.62511-3.62315-1.4627-4.9401 5.58902 2.89577 16.93272 4.14102 15.89281-5.46494-5.83955 4.35998-9.52763 1.95788-13.41109-.49155-2.66969-1.68385-5.67398-4.39365-5.43117-9.46811.25598-5.42373 3.8717-3.9989 4.39208-10.00914.17003-1.96382-.2983-4.40001-1.97247-5.2824-2.57685-1.35814-5.81671.39845-5.2598-4.02347.29536-2.3452 6.95724-6.69873 10.20833-8.60256-2.11661-.17919-6.21076.02743-9.26089 1.00564-2.57403.82552-6.71263 3.43994-10.78306 2.97793-2.51787-.28579-5.83167-3.12559-8.88731-6.3313-4.1841-4.3896-7.66278-9.98868-9.92498-16.57385-1.79456-5.22385-2.7213-14.76587-1.31395-14.54535 5.17611 1.63827 9.85775 3.8804 15.66893 3.48955z"/>
    <path fill="#fcef3c" stroke="#000" stroke-linecap="square" stroke-width="3.13985" d="M156.38988 237.37136c-7.01192-2.47782-19.43228 6.51528-17.62283 18.44107 2.09416 13.80223 23.92186 17.38574 32.63589.90275 10.78225-3.35184 21.33714-.3791 32.70034-19.89125 7.06035-5.36725 18.34148 3.88381 21.82468 13.38739 2.90015-5.62747 1.50303-10.92961-3.20954-15.98075 10.76791 4.66635 34.5008 4.42796 36.6712-15.53239l7.44832-20.73551 19.00723-49.2029-64.03798 29.23255-16.38006 11.86023c-2.5739 16.20946-13.35078 4.42722-18.91919 11.41809-6.62472 17.30281-27.21343 27.95061-40.06075 36.74552" transform="matrix(.78322 0 0 .80943 66.20148 217.08378)"/>
  </g>
  <path fill="#e00808" fill-rule="evenodd" stroke="#000" stroke-width="2.24172" d="M316.64028 289.70767c-6.42659.16415-12.62486.33197-18.016-1.1195-5.02188-1.35205-12.09136-.64677-17.50604 1.609-8.7108 3.62892-14.28132 6.28794-23.78063 6.44403-7.99942.13146-11.06386-3.52594-10.90963-10.96554 2.36297 3.75597 5.44326 5.11385 8.151 5.12576 3.4835.01532 9.44133-1.37857 13.8454-3.84987 22.80014-12.79413 39.67428-10.5061 48.2159 2.75612z"/>
  <path fill="#fff03c" fill-rule="evenodd" stroke="#000" stroke-width="2.24172" d="M275.50376 295.39551c-.17494 2.27657.87378 4.9852 2.14518 6.54498l4.6832-1.86224c-2.67387-.97583-5.18025-2.64052-6.82838-4.68274zM270.5318 281.49209c-4.32758-1.38671-5.42934-7.65476-4.89947-9.80777l7.05615-.58486c-.96833 2.3106-2.06578 6.71902-2.15667 10.39263z"/>
  <path fill="#fff03c" fill-rule="evenodd" stroke="#000" stroke-width="2.5000184508000003" d="M352.82093 386.29787c-2.71707-2.97096-3.14024-8.01618-2.4808-12.33037.89922-5.88276 4.28783-11.0894 4.65833-17.52166.42642-7.5237-3.51915-8.7229-3.49349-12.40394 3.8674 4.9475 12.96658 8.47066 14.80719.16437-4.59143.05126-9.1081-2.31285-11.19965-6.29948-3.76666-7.17947 2.2677-10.7829 2.18587-18.28212-.09523-8.84682-4.35894-10.37548-5.12959-13.5138 3.91141.56938 8.42747.36279 8.35833-4.345-2.19667 1.21914-4.67563.98354-6.53611-1.35644-2.2311-2.80612-1.43973-7.06955-2.54252-10.32216-2.04773-6.0396-4.83326-5.33885-5.855-8.55403 4.24515 1.3916 9.53988 1.05186 8.69167-5.29741-1.6471 1.46643-3.99395 1.98758-6.15112 1.06159-3.87972-1.66543-2.63731-6.18728-4.5514-9.86364-1.3863-2.6626-4.18249-4.30492-4.80955-6.71692 3.54758.40683 7.64778.43923 7.06816-3.75647-1.65466 1.061-3.9011.62432-5.46986-.74418-7.34214-6.40488-12.6738-13.61565-20.1393-17.34352-6.05226-3.0222-20.57659-3.49167-31.62117-2.47612-8.13975.74846-14.45774 5.28123-19.01869 8.5735-3.9751 2.86936-.9412 4.69558.5022 6.63524-3.75608.10949-7.69768 1.24804-10.97766 3.13702-1.89216 1.08972-4.25498 3.19713-3.86963 4.29616.2227.63517 2.67589-.24187 3.78024-1.2063.30833 2.54854.02377 5.56073.50152 8.18066.62832 3.44574 3.09286 6.3129 6.02025 6.60033 7.7628.76221 14.55906-.67685 21.04031-4.3557 8.77507-4.98084 12.51596-.15533 14.12877 5.41976 1.62603 5.62083.82486 13.01496-3.65593 18.24871-2.32623 2.71712-6.69863 7.0177-11.51053 7.53503-2.7009.29037-5.49506-.64898-7.68866.74135-1.11841.70885-1.02119 3.42944-1.05215 5.64441-.02421 1.729 1.41324 2.45651 3.27064 2.61798 4.30547.3743 3.89172 4.87169 6.47376 5.18332-.00755-1.15821.39673-5.8787 1.41178-6.06383 4.0797-.74408 13.31973-3.34897 13.2656-1.75591-.13862 4.00734-9.69499 14.29875-17.91693 14.75068-4.59644.25264-14.44076-1.87458-20.10679-1.42839-11.88013.9273-18.00791-.00672-18.1391-8.82252-10.23926 7.80268-.3102 15.70781 9.63595 19.96665-3.33596.05403-6.91308.85328-10.77217 2.10688-5.73413 1.86269-12.2656.3683-16.77053-3.71192.37993 14.19757 4.0905 21.69926 11.82581 25.19465 9.19221 4.15373 14.85743 2.30738 20.6855 2.46293-4.39986 3.15456-9.00212 8.90812-12.7581 13.57534-4.22025 5.24411-10.77169 9.9238-18.72757 10.07516 4.28933 6.22384 11.20778 9.39182 19.06754 9.5333 10.60549.1928 18.78235-3.92604 25.17036-10.17465-.21633 6.8094-6.70288 10.17418-6.83137 18.38447-.11481 7.33683 4.08085 13.2878 11.52802 13.909-3.6925-11.17646 12.88262-16.93876 19.32522-20.34918 6.097-3.22748 11.22454-7.25972 15.07245-13.28528 1.6992 6.67887-6.63745 12.74118-1.02541 22.091 3.77377 6.28721 11.08186 8.22776 18.57174 7.14697-5.26555-2.5381-7.36309-9.03714-4.90426-15.45531 3.53087-9.21651 9.41879-10.5238 14.21744-21.3373 1.27303-2.86869 1.7964-7.39527 2.1173-11.6986 3.28795 4.35393 2.37362 8.87114 1.99621 12.78379-.70899 7.35021.80398 16.86002 10.32688 14.7519z"/>
  <path fill="#fff03c" fill-rule="evenodd" stroke="#000" stroke-linecap="round" stroke-width="2.24172" d="M307.48068 296.43178c.20631 2.16572.04984 4.20878-.4157 6.30872m-10.43958-40.28886c1.06018.68135 3.57065 2.64894 5.92096 2.52801 5.07063-.2609 7.65744-.49471 9.4653.61102 2.14543 1.31217 2.3431 4.69697 4.9615 9.72313m3.14313-22.19559c.95533 1.83491 1.57017 3.98158 1.98834 6.04115m-3.56139-8.13855c1.26991-2.46476 3.35273-4.28497 6.07826-4.34099 4.90274-.10076 5.8503 9.37112 3.363 13.74243m-55.05973-8.03813c1.6894-3.61833 5.24061-5.8762 9.22436-5.7043 5.73805.24442 3.12367 5.9104 13.01105 4.93335m-17.93446.91926c3.76572-1.91278 5.61214.0395 5.88742 2.30437.24526 2.01775-1.91883 4.72393-5.97247 2.4121M273.62046 242.17857c17.32234-2.96182 34.64468-3.00007 51.96697 0 .21347-2.73443 1.1539-6.42463 2.46946-9.44247 2.2952-5.26504 5.24667-10.79778 8.25635-15.52082-2.2955-.0965-5.31332 1.78106-7.53063 5.56081-.88712-1.6895-4.56268-2.96015-6.92394-.70991 1.99302 2.16962 4.94615 4.83462 2.96186 7.87422-1.42095 2.17666-4.08188 1.80127-5.86986.70614-1.60405-.98252-3.08788-3.25115-3.6125-6.61218-2.18784 3.71984-4.68707 5.43366-6.94002 5.4906-3.7623.09508-5.62423-1.16297-5.62512-3.23097-.0015-3.62996 4.11284-4.99287 6.92364-5.87533-.91976-3.12939-4.73825-3.86677-6.35126-2.84717-.03034-4.38201-1.70507-7.51693-3.74144-8.5811-2.03636 1.06417-3.71107 4.19909-3.74143 8.5811-1.61307-1.0196-5.4315-.28222-6.35132 2.84717 2.8108.88246 6.92531 2.24537 6.9237 5.87533-.00075 2.068-1.86289 3.32605-5.62513 3.23097-2.25294-.05693-4.75223-1.77076-6.94002-5.4906-.52468 3.36103-2.00845 5.62966-3.61255 6.61218-1.78792 1.09513-4.44892 1.47052-5.86986-.70614-1.9843-3.0396.9689-5.7046 2.96186-7.87422-2.3612-2.25024-6.03682-.9796-6.92394.70991-2.21731-3.77975-5.23513-5.6573-7.53057-5.5608 3.00968 4.72303 5.96114 10.25577 8.25635 15.52081 1.31555 3.01784 2.25593 6.70804 2.4694 9.44247z"/>
  <g stroke="#000" stroke-width="3.16759">
    <path fill="#fff" fill-rule="evenodd" stroke-linejoin="bevel" stroke-width="3.89483" d="M1221.3737 498.76897c0-17.49485 6.144-33.6221 16.4773-46.45722.041 1.35355.1934 2.67754.3008 4.0107 2.8825 35.80876 29.3285 63.90373 61.8482 63.90373 32.5198 0 58.9658-28.09497 61.8483-63.90373.1074-1.33316.26-2.65715.3008-4.0107 10.3333 12.83512 16.4773 28.96237 16.4773 46.45722 0 41.85864-35.2341 75.80214-78.6263 75.80214-43.3923 0-78.6264-33.9435-78.6264-75.80214z" transform="matrix(.64381 0 0 .63995 -661.10987 44.3044)"/>
  </g>
  <path fill="#e20909" fill-rule="evenodd" stroke="#000" stroke-width="3" d="M1.5 1.5v173.44653c18.48084-.1138 33.76026 5.52 48.46322 13.35658 14.70296 7.83658 30.5368 13.27687 49.75 13.196 19.2132-.0809 34.1594-4.60476 50.25-13.196 16.0906-8.59123 31.529-12.69804 49.75-12.69804s34.2428 3.32671 50.25 12.69804c16.0072 9.37134 32.5081 13.17474 49.75 13.196 17.2419.0213 38.8509-6.79449 50.25-13.196 11.3991-6.40149 32.6247-12.69804 49.75-12.69804 17.1253 0 40.6075 7.3757 50.25 12.69804 9.6425 5.32234 24.6636 13.23605 49.75 13.196 25.0864-.04 31.5414-2.59502 50.25-13.196 18.7086-10.60097 36.5808-12.62066 48.5365-13.38771V1.5z"/>
  <path fill="#fff" stroke="#000" stroke-width="3" d="M200.00002 48.5c-18.227 0-35.2802 4.91173-50 13.45511-14.725 8.5464-31.7668 13.45512-50 13.45512C81.773 75.41023 64.7198 70.4985 50 61.95512 35.6803 53.64395 19.1667 48.79313 1.5 48.53128v68.08928c17.6667.26184 34.1805 5.11267 48.5002 13.42382 14.7198 8.54338 31.7728 13.45498 49.99982 13.45497 18.2332 0 35.275-4.90871 50-13.45511 14.7198-8.54339 31.773-13.45512 50-13.45512 18.2332 0 35.2752 4.90888 50.0002 13.45526 14.7198 8.54338 31.773 13.45562 50 13.45561 18.2332 0 35.2751-4.90921 50-13.45561 14.7199-8.54339 31.773-13.45562 50-13.45562 18.2332 0 35.2749 4.9091 49.9998 13.45548 14.7199 8.54338 31.773 13.45512 50 13.45511 18.2332 0 35.2751-4.90871 50-13.45511 14.3147-8.30824 30.8384-13.16183 48.5-13.42382V48.53129c-17.6616.262-34.1853 5.11559-48.5 13.42383-14.7249 8.54638-31.7668 13.4551-50 13.4551-18.227 0-35.2801-4.91172-50-13.4551-14.7249-8.5464-31.7668-13.45512-50-13.45512-18.227 0-35.2801 4.91173-50 13.45511-14.7249 8.5464-31.7668 13.45512-50 13.45512-18.227 0-35.2802-4.91173-50-13.45511-14.725-8.5464-31.7668-13.45512-50-13.45512z"/>
  <g fill="#fcef3c" stroke-width="2.5">
    <g stroke="#000" stroke-width="3.13985">
      <path stroke-linecap="square" d="M147.3308 238.94826c-5.23907-6.35127-19.18872-5.60165-22.32133 7.81044-3.50003 14.98514 6.09518 18.9446 18.45066 17.65051" transform="matrix(.78322 0 0 .80943 66.20148 217.08378)"/>
      <path d="M129.89276 235.82678c-32.49186-.29867-11.76695 31.66411-3.81688 20.21712" transform="matrix(.78322 0 0 .80943 66.20148 217.08378)"/>
      <path fill="#e20909" stroke-linecap="square" d="M112.62937 244.55085c3.00031 2.30541 7.15893 2.10124 7.98381-1.53694-3.09844-3.28238-3.5558-7.83543-3.85691-12.46367-8.62222 8.15338-5.35535 10.58664-4.1269 14.00061zM127.77359 247.63375c-3.64219-7.51251.45004-10.07215 3.00347-14.28303 1.70463 10.04279 9.93305 12.09797 5.21736 14.60713-3.57903 2.28619-5.90657 1.00004-8.22083-.3241z" transform="matrix(.78322 0 0 .80943 66.20148 217.08378)"/>
      <path fill="#e20909" stroke-linecap="square" d="M140.35203 240.59443c-1.48584 2.22328-2.80188 9.98426 2.30224 14.36378 3.46821 1.27188 6.19586.11341 8.14773-3.59088-1.82897-4.38691-6.95344-7.18829-10.44997-10.7729z" transform="matrix(.78322 0 0 .80943 66.20148 217.08378)"/>
      <path stroke-linecap="square" d="M174.5205 227.97766v-.00002c-7.52236-7.177-19.17387 4.14821-17.75104 19.08485 1.42284 14.93664 43.77614-1.01458 17.75104-19.08483z" transform="matrix(.78322 0 0 .80943 66.20148 217.08378)"/>
      <path fill="#e20909" stroke-linecap="square" d="M154.06356 226.2699c.88603 4.45655 2.69656 16.35321 11.0643 12.60885 6.61638-2.96067 4.34227-7.61987 2.26457-9.31903-2.8443-2.3261-9.42397-2.69971-13.32887-3.28982z" transform="matrix(.78322 0 0 .80943 66.20148 217.08378)"/>
    </g>
  </g>
  <g>
    <path fill="url(#aT)" fill-rule="evenodd" d="M300.00001 658.5s298.5-112.32031 298.5-397.77183V2.17649H1.5v258.55168C1.5 546.17969 300.00001 658.5 300.00001 658.5z"/>
  </g>
  <path style="marker:none" fill="none" stroke="#000" stroke-linecap="round" stroke-width="3" d="M1.5 1.5h597v258.50253c0 286.70281-298.5 398.3959-298.5 398.3959S1.5 546.70534 1.5 260.00253z" overflow="visible"/>
</svg>
